Coordinates
version=1
nRows=30
nColumns=33
inDegrees=yes

Units are S.I. units (second, meters, Newtons, ...)
Angles are in degrees.

endheader
time	ground_thorax_rot_x	ground_thorax_rot_y	ground_thorax_rot_z	ground_thorax_tx	ground_thorax_ty	ground_thorax_tz	clav_prot_r	clav_elev_r	scapula_abduction_r	scapula_elevation_r	scapula_upward_rot_r	scapula_winging_r	shoulder_elv_r	plane_of_elev_r	axial_rot_r	elbow_flexion_r	pro_sup_r	wrist_flex_r	wrist_dev_r	clav_prot_l	clav_elev_l	scapula_abduction_l	scapula_elevation_l	scapula_upward_rot_l	scapula_winging_l	shoulder_elv_l	plane_of_elev_l	axial_rot_l	elbow_flexion_l	pro_sup_l	wrist_flex_l	wrist_dev_l	
0.9400	1.756997	5.858104	-4.272968	-0.150140	1.005478	0.009337	-20.690852	-9.161765	-27.467333	-5.332686	8.691549	2.388825	69.120236	-50.736200	62.165225	86.449106	20.955234	34.862429	-12.584551	-0.964249	-0.838345	-1.865578	-5.389366	-0.619903	1.149722	41.421666	-54.268014	-18.088222	85.765141	15.082600	-5.328758	-21.417800	
0.9500	1.754571	5.846083	-4.248100	-0.150232	1.005426	0.009342	-20.691114	-9.174540	-27.461073	-5.346962	8.698900	2.392682	69.096178	-50.727503	62.151654	86.454678	20.954873	34.844820	-12.585740	-0.956997	-0.845814	-1.878956	-5.384303	-0.623850	1.151270	41.429362	-54.242204	-18.093670	85.772620	15.082936	-5.354153	-21.434470	
0.9600	1.750390	5.834754	-4.227551	-0.150294	1.005354	0.009339	-20.693097	-9.187790	-27.455685	-5.362465	8.709203	2.395824	69.068143	-50.717011	62.132081	86.462596	20.954063	34.821255	-12.584552	-0.949208	-0.851891	-1.891667	-5.381708	-0.630354	1.152056	41.441458	-54.219835	-18.098757	85.778499	15.082693	-5.383934	-21.451821	
0.9700	1.743609	5.820407	-4.202813	-0.150386	1.005316	0.009343	-20.696782	-9.205692	-27.448938	-5.384675	8.725111	2.399867	69.025859	-50.701791	62.101093	86.474586	20.952685	34.783698	-12.581099	-0.938207	-0.859257	-1.908458	-5.379656	-0.641716	1.153444	41.461241	-54.190817	-18.105561	85.785958	15.081887	-5.429000	-21.476831	
0.9800	1.731735	5.805065	-4.179010	-0.150491	1.005296	0.009349	-20.704303	-9.228854	-27.442550	-5.414938	8.749526	2.404077	68.959207	-50.681441	62.050074	86.491538	20.950547	34.719903	-12.572010	-0.922915	-0.867766	-1.929231	-5.380326	-0.662468	1.154471	41.495648	-54.155169	-18.113795	85.794450	15.079640	-5.500564	-21.513715	
0.9900	1.713787	5.790297	-4.160896	-0.150588	1.005283	0.009358	-20.716805	-9.255582	-27.438538	-5.451906	8.782961	2.407572	68.862047	-50.657760	61.975244	86.512234	20.947321	34.620833	-12.553746	-0.903127	-0.877671	-1.953285	-5.384465	-0.694998	1.154321	41.548686	-54.112446	-18.123115	85.804410	15.074865	-5.604937	-21.564425	
1.0000	1.678874	5.778065	-4.161354	-0.150693	1.005282	0.009383	-20.742483	-9.291851	-27.442403	-5.505595	8.837359	2.409625	68.681272	-50.629943	61.838616	86.536938	20.943370	34.428763	-12.515168	-0.870681	-0.892501	-1.986775	-5.397743	-0.761049	1.150656	41.650592	-54.047684	-18.135238	85.816924	15.064875	-5.802310	-21.656548	
1.0100	1.631105	5.768422	-4.178409	-0.150789	1.005276	0.009419	-20.778956	-9.331737	-27.453156	-5.569366	8.909772	2.408556	68.431802	-50.598448	61.651502	86.566331	20.935982	34.152419	-12.451419	-0.829096	-0.911499	-2.026046	-5.418072	-0.853737	1.143432	41.793022	-53.966697	-18.150384	85.834393	15.047629	-6.071853	-21.777883	
1.0200	1.572674	5.760353	-4.204895	-0.150900	1.005272	0.009464	-20.824771	-9.373146	-27.467985	-5.641732	9.001532	2.403023	68.116436	-50.558044	61.416929	86.600568	20.918263	33.782388	-12.347854	-0.780617	-0.935845	-2.068848	-5.443059	-0.969911	1.132553	41.971433	-53.872347	-18.170836	85.861383	15.018634	-6.399169	-21.917692	
1.0300	1.518545	5.748502	-4.227066	-0.151006	1.005238	0.009506	-20.869866	-9.402293	-27.478278	-5.706277	9.103472	2.389706	67.794199	-50.504086	61.177376	86.651710	20.881994	33.366526	-12.197042	-0.735698	-0.961514	-2.106126	-5.466173	-1.084510	1.119946	42.151119	-53.785849	-18.199595	85.904174	14.973648	-6.704819	-22.033043	
1.0400	1.465770	5.730450	-4.242590	-0.151121	1.005189	0.009551	-20.918458	-9.416638	-27.485921	-5.764213	9.225279	2.364760	67.424790	-50.424565	60.910614	86.698938	20.801221	32.812680	-11.931982	-0.696807	-0.995129	-2.131807	-5.484469	-1.205127	1.101770	42.345879	-53.709778	-18.240267	85.973169	14.894683	-6.991068	-22.108684	
1.0500	1.429540	5.705592	-4.240117	-0.151231	1.005114	0.009589	-20.961102	-9.408486	-27.484478	-5.803313	9.353595	2.328539	67.070005	-50.323678	60.653673	86.750028	20.668712	32.180200	-11.557709	-0.672017	-1.036095	-2.141130	-5.489142	-1.308701	1.080299	42.523729	-53.655310	-18.292948	86.064981	14.782783	-7.189308	-22.110386	
1.0600	1.409389	5.679489	-4.220442	-0.151342	1.005039	0.009616	-20.998638	-9.384564	-27.475892	-5.828600	9.484983	2.284638	66.727943	-50.207053	60.399025	86.797235	20.481919	31.469916	-11.077426	-0.659979	-1.088113	-2.136344	-5.477960	-1.398044	1.055357	42.687490	-53.614853	-18.354821	86.172553	14.640774	-7.307675	-22.043255	
1.0700	1.420582	5.656162	-4.196932	-0.151454	1.004948	0.009646	-21.028101	-9.339231	-27.456355	-5.834765	9.619555	2.230780	66.424117	-50.087541	60.133726	86.894029	20.219339	30.690496	-10.478024	-0.655896	-1.159679	-2.126437	-5.444683	-1.476870	1.027206	42.836751	-53.572450	-18.436308	86.287316	14.464128	-7.332244	-21.892924	
1.0800	1.446673	5.640005	-4.177374	-0.151574	1.004869	0.009683	-21.057081	-9.289129	-27.433613	-5.838416	9.759856	2.173414	66.112654	-49.967150	59.827064	87.022568	19.895196	29.821951	-9.779305	-0.652345	-1.250587	-2.117081	-5.396667	-1.562905	0.994890	42.997707	-53.513109	-18.528593	86.407865	14.260478	-7.326894	-21.697620	
1.0900	1.482904	5.624009	-4.162913	-0.151712	1.004783	0.009719	-21.079945	-9.243679	-27.403481	-5.843600	9.893407	2.120101	65.826284	-49.844708	59.493610	87.209832	19.524890	28.947633	-9.025627	-0.648697	-1.351266	-2.110729	-5.339224	-1.647700	0.961897	43.158742	-53.439142	-18.622417	86.546451	14.040744	-7.274094	-21.458512	
1.1000	1.513331	5.606576	-4.137301	-0.151864	1.004707	0.009734	-21.095560	-9.218907	-27.369408	-5.859883	10.005384	2.081615	65.574370	-49.714933	59.159090	87.418220	19.155421	28.153428	-8.296561	-0.647434	-1.445938	-2.104045	-5.282131	-1.719976	0.931965	43.308655	-53.361222	-18.698714	86.702956	13.828623	-7.182573	-21.201619	
1.1100	1.535542	5.580509	-4.113543	-0.152034	1.004624	0.009752	-21.106313	-9.205918	-27.337165	-5.879365	10.096015	2.053762	65.307194	-49.559320	58.757138	87.672198	18.727471	27.306221	-7.461295	-0.648830	-1.543813	-2.092151	-5.223013	-1.794535	0.899386	43.475686	-53.275573	-18.767860	86.900252	13.589412	-7.021170	-20.866694	
1.1200	1.539548	5.550637	-4.074642	-0.152212	1.004572	0.009758	-21.115873	-9.212599	-27.313783	-5.908034	10.160948	2.040908	65.011735	-49.374768	58.305079	87.909672	18.280263	26.432032	-6.574126	-0.656304	-1.637962	-2.069655	-5.165835	-1.865620	0.864697	43.654353	-53.185580	-18.816577	87.123379	13.340748	-6.813450	-20.481219	
1.1300	1.530761	5.512128	-4.038745	-0.152393	1.004540	0.009764	-21.125538	-9.236906	-27.302472	-5.943733	10.199019	2.042399	64.666357	-49.147290	57.760283	88.145457	17.775007	25.457634	-5.558698	-0.673863	-1.738584	-2.026955	-5.105741	-1.944141	0.821393	43.854110	-53.073318	-18.841339	87.382429	13.062208	-6.529739	-19.999515	
1.1400	1.518558	5.477118	-3.989551	-0.152575	1.004550	0.009759	-21.133860	-9.281975	-27.298524	-5.990189	10.212925	2.059141	64.319514	-48.895310	57.185534	88.354975	17.279609	24.510738	-4.560058	-0.699107	-1.837528	-1.973663	-5.043298	-2.013270	0.776384	44.042947	-52.931823	-18.836907	87.636008	12.792463	-6.200462	-19.481187	
1.1500	1.515593	5.446085	-3.963200	-0.152752	1.004589	0.009764	-21.147611	-9.347462	-27.306522	-6.051594	10.214704	2.088120	63.930786	-48.607769	56.516835	88.568228	16.734451	23.459749	-3.471960	-0.732755	-1.955068	-1.909224	-4.963937	-2.082664	0.724415	44.234683	-52.736138	-18.809634	87.891133	12.499475	-5.800013	-18.876456	
1.1600	1.515188	5.425790	-3.930169	-0.152937	1.004649	0.009761	-21.158462	-9.428619	-27.316506	-6.121421	10.199392	2.128612	63.537126	-48.294229	55.822708	88.756572	16.208505	22.420172	-2.429879	-0.766471	-2.064586	-1.851436	-4.883697	-2.131943	0.678894	44.401053	-52.497228	-18.759116	88.128637	12.219293	-5.344279	-18.238074	
1.1700	1.517108	5.408675	-3.911292	-0.153129	1.004711	0.009748	-21.165537	-9.532559	-27.324023	-6.207140	10.169973	2.183438	63.124132	-47.939055	55.086948	88.923704	15.687985	21.364629	-1.403303	-0.800374	-2.171340	-1.799112	-4.799953	-2.166415	0.637695	44.544170	-52.206918	-18.676818	88.364456	11.940907	-4.825159	-17.549910	
1.1800	1.516958	5.399618	-3.874101	-0.153346	1.004764	0.009724	-21.160069	-9.637991	-27.322247	-6.286737	10.120556	2.244477	62.704785	-47.548293	54.336615	89.057487	15.191513	20.317892	-0.421982	-0.826045	-2.258425	-1.764734	-4.727059	-2.183355	0.607988	44.656825	-51.877799	-18.568062	88.591455	11.671826	-4.233254	-16.815041	
1.1900	1.520794	5.395466	-3.846253	-0.153570	1.004827	0.009700	-21.149596	-9.758990	-27.316385	-6.376297	10.059139	2.316318	62.257138	-47.117997	53.535618	89.160607	14.687418	19.228243	0.572102	-0.847601	-2.351043	-1.741147	-4.647200	-2.195569	0.580995	44.751492	-51.497995	-18.423977	88.808278	11.393760	-3.576114	-16.014927	
1.2000	1.519757	5.398015	-3.798939	-0.153818	1.004872	0.009670	-21.124383	-9.870604	-27.300321	-6.449365	9.976922	2.389675	61.779468	-46.647372	52.692307	89.226505	14.172662	18.085583	1.591449	-0.858007	-2.431460	-1.734294	-4.579183	-2.209330	0.560823	44.834128	-51.077760	-18.252640	89.024145	11.103251	-2.834142	-15.132291	
1.2100	1.524768	5.405569	-3.756706	-0.154064	1.004928	0.009633	-21.093306	-9.999594	-27.273425	-6.536879	9.891033	2.472903	61.289519	-46.146445	51.828596	89.241662	13.668010	16.953614	2.583577	-0.864062	-2.524293	-1.735011	-4.502586	-2.229844	0.539105	44.900285	-50.606474	-18.041564	89.219306	10.811323	-2.068681	-14.216604	
1.2200	1.525017	5.421101	-3.703725	-0.154319	1.004972	0.009593	-21.051517	-10.129132	-27.237114	-6.619486	9.790749	2.560712	60.768718	-45.612896	50.928674	89.201150	13.158669	15.794691	3.578066	-0.859899	-2.614314	-1.749406	-4.432322	-2.259527	0.520112	44.961034	-50.088828	-17.800360	89.401106	10.508825	-1.257757	-13.242742	
1.2300	1.528082	5.444096	-3.649333	-0.154569	1.005041	0.009551	-21.006272	-10.284907	-27.187886	-6.727327	9.694105	2.660782	60.245099	-45.067248	50.038791	89.086874	12.681702	14.693635	4.493756	-0.847815	-2.719098	-1.779314	-4.350450	-2.293766	0.501847	45.011034	-49.531393	-17.538417	89.535521	10.217379	-0.478754	-12.288376	
